<svg id="Layer_1" data-name="Layer 1" xmlns="http://www.w3.org/2000/svg" viewBox="0 0 1080 273.7"><defs><style>.cls-1{fill:#022612;}.cls-2{fill:#b9e17d;}.cls-3{fill:#86c63d;}</style></defs><path class="cls-1" d="M354.72,69.83c.13,0,.25-.19.39-.19h14.26V179.2H354.78Z"/><path class="cls-1" d="M1080,100.34c-.22.65-.36,1.17-.55,1.72q-17,44.13-34,88.26a40.84,40.84,0,0,1-3.52,7,19.17,19.17,0,0,1-15,8.93c-3,.34-6.08.27-9.12.32-.35,0-.93-.24-1-.49-1.21-3.63-2.33-7.29-3.54-11.16h5.11a52,52,0,0,0,6.58-.65,9.5,9.5,0,0,0,4.45-2.18,9.61,9.61,0,0,0,2.79-4.11c.79-1.87,1.55-3.73,2.23-5.63a2.51,2.51,0,0,0,0-1.71q-13.64-34-27.26-67.89a1.89,1.89,0,0,0-1.25-1H981.59c-.24,0-.47.07-.7.12v46.29a18.66,18.66,0,0,0,.17,3.08c.63,3.71,2.3,5.46,6,5.76s7.36.24,11,.3h7.28a7.64,7.64,0,0,1-.1.82c-1.14,3.42-2.25,6.84-3.41,10.36a1.55,1.55,0,0,1-.4.58,1.49,1.49,0,0,1-.62.33c-6.68,0-13.38.15-20-.29-8.2-.57-13.21-6-13.74-14.25,0-1.39-.11-2.77-.11-4.14v-49H950.06V100.43H967V85.36a2,2,0,0,1,.63-1.49c4.24-3,8.52-6,12.81-8.93a1.55,1.55,0,0,1,.43,0v25.54h34.72a2.23,2.23,0,0,1,1.58.37,2.17,2.17,0,0,1,.9,1.34q11.46,30.54,23,61a1.41,1.41,0,0,0,0,.29l1,1.11a5,5,0,0,0,.76-1.11c1.38-3.78,2.73-7.58,4.08-11.37q9-25.17,17.91-50.33a1.71,1.71,0,0,1,1.84-1.37C1071,100.4,1075.4,100.34,1080,100.34Z"/><path class="cls-1" d="M459.94,179.2H445.82V132.09a40,40,0,0,0-1.16-9.18,15.24,15.24,0,0,0-4.15-7.47,15.07,15.07,0,0,0-7.51-4,27.64,27.64,0,0,0-12.85-.33A20.7,20.7,0,0,0,403.6,131.8v47.35H389.72V100.46H402.2c.39,3.2.8,6.45,1.23,9.7a6.87,6.87,0,0,0,.53,1.39,4.26,4.26,0,0,0,1.27-1,27.28,27.28,0,0,1,16.13-10.67,34.92,34.92,0,0,1,24.42,2,23.29,23.29,0,0,1,10.72,10.63,2.13,2.13,0,0,0,1.16,1.07c.24,0,.8-.56,1-1a24.8,24.8,0,0,1,13.37-11.27,37.18,37.18,0,0,1,26.79-.65c10,3.52,15.34,11.12,16.86,21.43a50.19,50.19,0,0,1,.54,7.65v49.35h-14V132.8a43.2,43.2,0,0,0-1-9.07c-1.71-7.34-6.6-11.39-13.86-12.68a28.24,28.24,0,0,0-10.84.09A20.78,20.78,0,0,0,460,131.58v45.85Z"/><path class="cls-1" d="M549.14,167v39.48h-13.9V100.38h13c.32,4.24.63,8.55,1,13.17.52-.46.83-.62,1-.87,3.94-7.15,10.22-11,17.91-12.85,10.5-2.5,20.73-1.71,30,4.26a32.75,32.75,0,0,1,14.32,21.25c2.67,11.66,2.69,23.31-1.85,34.55-5.11,12.8-15,19.42-28.53,20.77a37.74,37.74,0,0,1-21.21-3.42,23.87,23.87,0,0,1-10.49-9.62,6,6,0,0,0-.75-.92Zm.1-20a23,23,0,0,0,16.94,21.4,30.77,30.77,0,0,0,11.81.86c9.53-.94,16.41-5.58,19.57-14.8a44.51,44.51,0,0,0-.12-29.57,20.26,20.26,0,0,0-15.65-13.69,34.07,34.07,0,0,0-11.26-.46c-9.4,1-17.83,7.49-20.2,16.37C548.89,134.27,548.93,139.92,549.24,146.92Z"/><path class="cls-1" d="M822.19,111.67v46.51a19.85,19.85,0,0,0,.21,3.08c.65,3.56,2.28,5.3,5.88,5.56,4.4.31,8.83.24,13.24.32h4.08c-1.23,4.11-2.44,8.08-3.65,12.12H824.9a26.93,26.93,0,0,1-4.38-.48c-7.48-1.46-11.72-6.32-12.23-14,0-1.44-.14-2.86-.14-4.3V111.63H791.28V100.4h16.79c0-.64.08-1.15.08-1.71v-13a2.37,2.37,0,0,1,1.16-2.3c3.83-2.59,7.6-5.26,11.4-7.89.39-.27.8-.51,1.42-.89v25.66h49.7V179.2H858V111.7Z"/><path class="cls-1" d="M702.6,168.17V178a1.53,1.53,0,0,1-.32.65,1.46,1.46,0,0,1-.57.44,20,20,0,0,1-14.54,0c-4-1.57-5.64-4.94-6.15-9a7,7,0,0,0-.56-1.49,4.8,4.8,0,0,0-1.42,1,24.33,24.33,0,0,1-13.19,9.19c-9.29,3-18.66,3.42-27.81-.42-14.08-5.86-18.5-24.77-8.53-35.78a26.5,26.5,0,0,1,15.34-8.18c6.33-1.11,12.75-1.61,19.11-2.44a71.38,71.38,0,0,0,9.42-1.53c4.83-1.26,7.16-4.22,7.4-8.55a9.73,9.73,0,0,0-6.37-10.11,27.25,27.25,0,0,0-10-2,40,40,0,0,0-13.64,1.23c-6.51,1.94-9.73,6.14-10,12.95v.84H627.15a66.6,66.6,0,0,1,1-6.84c1.93-8.18,7.45-13.07,14.91-16.06a48.68,48.68,0,0,1,18-3.08,56,56,0,0,1,18.6,2.44c9.94,3.42,14.81,10.1,14.83,20.62,0,13.85.12,27.71,0,41.55,0,5.13,2.35,6.51,7.17,5.13Zm-21.49-30.12a52.6,52.6,0,0,1-7.5,2.46c-5.64,1-11.35,1.71-17.05,2.38A34.76,34.76,0,0,0,645,145.61a11.31,11.31,0,0,0-6.61,10.81,11.49,11.49,0,0,0,6.51,11.05,21.1,21.1,0,0,0,8.78,2.17c7.22.43,14.11-.63,20.11-5.13A16.84,16.84,0,0,0,681.11,151c.11-4.23,0-8.55,0-12.71C681.17,138.15,681.09,138,681.11,138.05Z"/><path class="cls-1" d="M785.4,126.18H772.14c-.31,0-.79-.55-.89-.91-2.62-9.92-9.8-13.81-18.51-14.58a34.44,34.44,0,0,0-12.7,1,20.68,20.68,0,0,0-9,5.23,21,21,0,0,0-5.38,9,44.1,44.1,0,0,0-.42,27.47c2.78,9,9.27,14,18.44,15.4a33.83,33.83,0,0,0,14.74-.77,17.84,17.84,0,0,0,13.31-14.3,7.26,7.26,0,0,1,.26-1.35H786c-.17,1.16-.29,2.31-.53,3.42A28.24,28.24,0,0,1,768.08,177a47.36,47.36,0,0,1-37.29.19,32.19,32.19,0,0,1-18.22-18.56,48.55,48.55,0,0,1,.32-38c5.3-12.4,15.21-19.26,28.38-21.31A46.73,46.73,0,0,1,767,102c10.06,4.22,16.42,11.54,18.17,22.56A8.18,8.18,0,0,0,785.4,126.18Z"/><path class="cls-1" d="M891.05,69.72h13.79V179.2H891.05Z"/><path class="cls-1" d="M924.07,100.52h13.77V179.2H924.07Z"/><path class="cls-2" d="M101.43,76.17,162,111.1V34.92L101.43,0Z"/><path class="cls-3" d="M101.43,76.17,162,111.1V34.92L101.43,0Z"/><path class="cls-2" d="M162,62.21l60.52-34.92v76.18L162,138.39Z"/><path class="cls-2" d="M103,215l-.11-69.86L36.93,183.33l.13,69.86Z"/><path class="cls-3" d="M103,215l-.11-69.86L36.93,183.33l.13,69.86Z"/><path class="cls-2" d="M60.56,169.64,0,134.79,65.91,96.61l60.56,34.84Z"/><path class="cls-2" d="M222.43,144.48l-60.55,34.85,65.93,38.18,60.55-34.84Z"/><path class="cls-3" d="M222.43,144.48l-60.55,34.85,65.93,38.18,60.55-34.84Z"/><path class="cls-2" d="M204.17,203.84l-.11,69.86-65.91-38.18.11-69.87Z"/></svg>